<?xml version="1.0" encoding="utf-8"?>
<svg version="1.1" xmlns:xlink="http://www.w3.org/1999/xlink" width="41px" height="34px" xmlns="http://www.w3.org/2000/svg">
  <g transform="matrix(1 0 0 1 -358 -73 )">
    <path d="M 0 31.68193  C 0 25.28936375  3.89530783648848 19.813455  9.42492653634247 17.5321125  C 7.34212655523061 15.84040125  6.00962656731451 13.2486375  6.00962656731451 10.343275  C 6.00962656731451 5.24620625  10.110856530122 1.11417499999999  15.1700002342425 1.11417499999999  C 20.2291439383631 1.11417499999999  24.330322651171 5.24620625  24.330322651171 10.343275  C 24.330322651171 13.2486375  22.9978739132545 15.84040125  20.9150226821431 17.5321125  C 26.4447438819961 19.813455  30.3400000966715 25.28936375  30.3400000966715 31.68193  C 30.3400000966715 32.29857  30.3037663470001 32.9067025  30.2332975976392 33.50422625  L 26.9360776275404 33.50422625  C 27.0271760283189 32.9010723312773  27.0728145606292 32.291924693111  27.0726076263023 31.68193  C 27.0726076263023 25.05894375  21.7436326746288 19.6899425  15.1700002342425 19.6899425  C 8.59636779385636 19.6899425  3.2673928421828 25.05894375  3.2673928421828 31.68193  C 3.2673928421828 32.30144  3.31403034175986 32.9099825  3.40392284094469 33.50422625  L 0.106702870845936 33.50422625  C 0.0354960456996309 32.8994064411154  -0.000132778449312809 32.2909270406574  0 31.68193  Z M 9.27701903768377 10.34332625  C 9.27701903768377 13.62230125  11.9153690137576 16.280485  15.1700002342425 16.280485  C 18.424580204728 16.280485  21.0629814308013 13.6223525  21.0629814308013 10.34332625  C 21.0629814308013 7.0643  18.4246314547275 4.40611625  15.1700002342425 4.40611625  C 11.9154202637571 4.40611625  9.27701903768377 7.0643  9.27701903768377 10.34332625  Z M 24.9102163959122 0.222014999999999  C 25.2588701427504 0.176504999999992  25.5613476400073 0.153750000000002  25.8176488876831 0.153750000000002  C 30.8735638418328 0.153750000000002  34.9722313046636 4.28655000000001  34.9722313046636 9.38469499999999  C 34.9722313046636 12.29057  33.6406025667396 14.88284625  31.5590838356161 16.57491625  C 37.0852175355017 18.85672  40.9780650001989 24.33375625  40.9780650001989 30.7275525  C 40.9780650001989 31.344295  40.9418825005271 31.95253  40.8714650011656 32.5502075  L 37.5762950310483 32.5502075  C 37.6673481084705 31.9469286824132  37.7129692990542 31.3376639296418  37.7127737798106 30.7275525  C 37.7127737798106 24.10323375  32.3871300781069 18.7332075  25.8176488876831 18.7332075  L 25.8565988873298 18.7332075  C 24.9148801458699 18.7332075  24.1515114027926 17.96983875  24.1515114027926 17.02812  C 24.1515114027926 16.0864525  24.9148801458699 15.3230325  25.8565988873298 15.3230325  L 25.8176488876831 15.3230325  C 29.070178858187 15.3230325  31.7068888342757 12.66433625  31.7068888342757 9.38469499999999  C 31.7068888342757 6.10500250000001  29.070178858187 3.4463575  25.8176488876831 3.4463575  C 25.5900988897466 3.4463575  25.3243163921568 3.47367375000002  25.0203526449134 3.52846  C 24.2280276520987 3.67119124999999  23.4699376589735 3.14454625000002  23.3272064102679 2.35211875000002  C 23.3206859274898 2.31588784460772  23.3155401553287 2.27942295384636  23.3117801604078 2.24280250000001  C 23.209433911336 1.24752750000002  23.9180676549096 0.35162625000001  24.9102163959122 0.222014999999999  Z " fill-rule="nonzero" fill="#fcbf00" stroke="none" transform="matrix(1 0 0 1 358 73 )" />
  </g>
</svg>