<?xml version="1.0" encoding="utf-8"?>
<svg version="1.1" xmlns:xlink="http://www.w3.org/1999/xlink" width="35px" height="42px" xmlns="http://www.w3.org/2000/svg">
  <g transform="matrix(1 0 0 1 -633 -69 )">
    <path d="M 22.2766493055556 12.8121328125  C 23.8688657407407 12.13332421875  25.1259085648148 11.200013671875  26.0476967592592 9.9272578125  C 28.0589409722222 7.296966796875  27.8075 4.327271484375  27.7237268518519 3.73332421875  C 27.6398726851852 0.169681640625001  18.7570023148148 0  16.997199074074 0  C 15.2373553240741 0  6.60584490740746 0.169681640625001  6.27067129629631 3.47878125  C 6.27067129629631 3.64850390625  5.85168402777776 6.78788085937499  8.1142881944445 9.757576171875  C 9.11989004629629 11.030291015625  10.5445196759259 12.04850390625  12.2205497685185 12.8121328125  C 6.43825810185183 15.4423828125  0.236979166666629 21.8060390625  0.236979166666629 28.42423828125  C 0.236979166666629 36.654556640625  6.94101851851849 42  17.3323726851852 42  C 28.0589004629629 42  34.6791666666667 36.909099609375  34.6791666666667 28.763642578125  C 34.7629398148148 22.145443359375  28.1426736111112 15.52728515625  22.2766087962963 12.8121328125  Z M 10.1254918981482 8.23027734375  C 8.70090277777774 6.36365625000001  8.70090277777774 4.4121328125  8.70090277777774 3.903046875  C 9.3713310185185 3.393919921875  12.2205497685185 2.5454296875  16.997199074074 2.5454296875  C 21.6900347222222 2.5454296875  24.6230671296296 3.393919921875  25.2096817129629 3.903046875  L 25.2096817129629 4.072728515625  C 25.2096817129629 4.072728515625  25.5448958333334 6.4484765625  24.0364930555555 8.40000000000001  C 22.6956365740741 10.18180078125  20.2654456018519 11.200013671875  16.8296122685185 11.454556640625  C 13.7289525462963 11.030291015625  11.4663483796296 9.9272578125  10.1255324074074 8.230318359375  Z M 32.2490162037037 28.76368359375  C 32.2490162037037 35.466703125  26.7181655092593 39.4545703125  17.4162268518519 39.4545703125  C 8.36572916666671 39.4545703125  2.83487847222227 35.21216015625  2.83487847222227 28.424279296875  C 2.83487847222227 21.296994140625  12.2205902777778 14.084888671875  17.4162268518519 14.084888671875  C 22.6119039351852 14.084888671875  32.2490162037037 21.890982421875  32.2490162037037 28.76368359375  Z " fill-rule="nonzero" fill="#2fc25b" stroke="none" transform="matrix(1 0 0 1 633 69 )" />
  </g>
</svg>