<?xml version="1.0" encoding="utf-8"?>
<svg version="1.1" xmlns:xlink="http://www.w3.org/1999/xlink" width="37px" height="42px" xmlns="http://www.w3.org/2000/svg">
  <g transform="matrix(1 0 0 1 -905 -69 )">
    <path d="M 36.8817986862244 4.047094078125  C 36.8817986862244 1.88975676562499  35.1149222066326 0.134770640625007  32.9428125242347 0.134770640625007  L 4.05709091709184 0.134770640625007  C 1.88502951403063 0.134770640625007  0.118104755102081 1.88975676562499  0.118104755102081 4.04714203125  L 0.118104707908174 37.95285796875  C 0.118104707908174 40.112785546875  1.8849812346939 41.865229359375  4.05709086989793 41.865229359375  L 32.9428124770408 41.865229359375  C 35.1149221594387 41.865229359375  36.8817986390306 40.1128335  36.8817986390306 37.95285796875  L 36.8817986862244 4.047094078125  Z M 34.2558240204081 37.95285796875  C 34.2558240204081 38.6711709375  33.6660119757653 39.256997765625  32.9428125242347 39  L 4.05709091709184 39  C 3.33393974489798 39.256997765625  2.74407942091841 38.6711709375  2.74407942091841 37.95285796875  L 2.74407942091841 34  L 34.2557756938776 34  L 34.2557756938776 37.95285796875  Z M 34 31.433550046875  L 34.2558240204081 31  L 3 31  L 3 4.047094078125  C 2.74412770025515 3.32882906250001  3.33393974489798 2.74295428124999  4.05713919642858 3  L 32.9428608035714 3  C 33.666060255102 2.74295428124999  34.2558722997449 3.32882906250001  34 4.047094078125  L 34 31.433550046875  Z M 30.7271418545919 9.261015046875  C 30.7014978341837 8.55550935937499  30.1193645165816 8.002780125  29.4141786377551 8.002780125  C 29.4013325114796 8.002780125  29.388534617347 8.002780125  29.3731289311224 8.002780125  C 28.6499294795918 8.0257085625  28.0806422882653 8.62683703125001  28.1011671415816 9.34505404687499  C 28.1037750280613 9.385826390625  28.1832182755102 13.397490515625  25.5828875829081 16.054121296875  C 23.9903516581633 17.6791635  21.6823432410714 18.501853734375  18.7179257053572 18.501853734375  C 9.09876910714286 18.501853734375  8.61409265688781 9.33229471875001  8.59868697066327 8.94260690625001  C 8.56792383035713 8.22429393750001  7.9857905127551 7.709842734375  7.23699532015303 7.6894565625  C 6.51384414795916 7.71746957812501  5.94711656377547 8.318550046875  5.97271225765303 9.036863015625  C 5.97783137755107 9.15658982812501  6.54204772831633 21.110085375  18.7179257053572 21.110085375  C 22.4312350395409 21.110085375  25.3802951683673 20.01484396875  27.4857111237245 17.852374125  C 30.8605292614795 14.38322221875  30.7323092538265 9.46727521875  30.7271418545919 9.261015046875  Z " fill-rule="nonzero" fill="#f55160" stroke="none" transform="matrix(1 0 0 1 905 69 )" />
  </g>
</svg>