<?xml version="1.0" encoding="utf-8"?>
<svg version="1.1" xmlns:xlink="http://www.w3.org/1999/xlink" width="42px" height="42px" xmlns="http://www.w3.org/2000/svg">
  <g transform="matrix(1 0 0 1 -1173 -69 )">
    <path d="M 41.8813559173728 21  C 41.8813559173728 9.46732206355932  32.5322033898306 0.118644082627114  21 0.118644082627114  C 9.46779661016944 0.118644082627114  0.118644082627156 9.46732201906779  0.118644082627156 21  C 0.118644082627156 32.5326779809322  9.46779661016944 41.8813559173729  21 41.8813559173729  C 32.5322033898306 41.8813559173729  41.8813559173728 32.5326779364407  41.8813559173728 21  Z M 38.0847457627119 21  C 38.0847457627119 30.4355254385593  30.4355254385594 38.0847457627119  21 38.0847457627119  C 11.5644745614406 38.0847457627119  3.91525423728808 30.4355254385593  3.91525423728808 21  C 3.91525423728808 11.5644745614407  11.5644745614406 3.91525423728814  21 3.91525423728814  C 30.4355254385594 3.91525423728814  38.0847457627119 11.5644745614407  38.0847457627119 21  Z " fill-rule="nonzero" fill="#178fff" stroke="none" transform="matrix(1 0 0 1 1173 69 )" />
  </g>
</svg>